<?xml version="1.0" encoding="iso-8859-1"?>
<!-- Uploaded to: SVG Repo, www.svgrepo.com, Generator: SVG Repo Mixer Tools -->
<!DOCTYPE svg PUBLIC "-//W3C//DTD SVG 1.1//EN" "http://www.w3.org/Graphics/SVG/1.1/DTD/svg11.dtd">
<svg fill="#000000" height="800px" width="800px" version="1.1" id="Capa_1" xmlns="http://www.w3.org/2000/svg" xmlns:xlink="http://www.w3.org/1999/xlink" 
	 viewBox="0 0 460.687 460.687" xml:space="preserve">
<g>
	<path d="M393.221,67.466C349.715,23.96,291.871,0,230.344,0S110.972,23.96,67.466,67.466C23.96,110.972,0,168.816,0,230.343
		s23.96,119.372,67.466,162.877c43.506,43.506,101.351,67.466,162.877,67.466s119.371-23.96,162.877-67.466
		c43.506-43.506,67.466-101.351,67.466-162.877S436.727,110.972,393.221,67.466z M230.344,440.687
		C114.36,440.687,20,346.327,20,230.343S114.36,20,230.344,20s210.343,94.359,210.343,210.343S346.328,440.687,230.344,440.687z"/>
	<path d="M230.344,45.879c-101.714,0-184.464,82.75-184.464,184.464s82.75,184.464,184.464,184.464
		c101.713,0,184.463-82.75,184.463-184.464S332.057,45.879,230.344,45.879z M394.807,230.343c0,13.787-1.715,27.179-4.925,39.985
		l-87.328-63.447l33.326-102.568C371.877,134.506,394.807,179.794,394.807,230.343z M206.744,291.77h47.199l-23.599,72.631
		L206.744,291.77z M200.246,271.77l-18.602-57.25l48.699-35.382l48.699,35.382l-18.602,57.25H200.246z M175.146,194.52l-23.6-72.632
		l61.784,44.889L175.146,194.52z M179.217,271.77h-76.37l61.784-44.889L179.217,271.77z M247.356,166.777l61.784-44.889
		l-23.6,72.632L247.356,166.777z M296.056,226.881l61.784,44.889h-76.369L296.056,226.881z M317.617,91.009l-87.273,63.408
		l-87.273-63.408c25.311-15.911,55.233-25.129,87.273-25.129C262.383,65.879,292.306,75.098,317.617,91.009z M124.807,104.313
		l33.326,102.567l-87.328,63.448c-3.211-12.805-4.925-26.198-4.925-39.985C65.88,179.794,88.81,134.507,124.807,104.313z
		 M77.789,291.77h107.925l33.351,102.644C154.965,390.05,100.835,348.798,77.789,291.77z M241.622,394.413l33.35-102.644h107.925
		C359.852,348.798,305.723,390.05,241.622,394.413z"/>
</g>
</svg>